<svg fill="#000000" xmlns="http://www.w3.org/2000/svg"  viewBox="0 0 24 24" width="48px" height="48px"><path fill="none" stroke="#000000" stroke-miterlimit="10" stroke-width="2" d="M18,20H6c-1.105,0-2-0.895-2-2V6	c0-1.105,0.895-2,2-2h12c1.105,0,2,0.895,2,2v12C20,19.105,19.105,20,18,20z"/><path fill="none" stroke="#000000" stroke-width="2" d="M13,14c0,1.105-0.895,2-2,2s-2-0.895-2-2s0.895-2,2-2"/><line x1="13" x2="13" y1="14" y2="7" fill="none" stroke="#000000" stroke-width="2"/><path fill="none" stroke="#000000" stroke-width="2" d="M16,10c-1,0-3-1.358-3-3"/></svg>